<svg width="106" height="76" viewBox="0 0 106 76" fill="none" xmlns="http://www.w3.org/2000/svg">
<path fill-rule="evenodd" clip-rule="evenodd" d="M30.2058 45.047H1.50277C1.77052 20.9404 21.3763 1.5 45.5466 1.5H74.7444V30.198H45.5466C37.2333 30.198 30.4694 36.7981 30.2058 45.047ZM45.5466 0.5C20.6572 0.5 0.5 20.6575 0.5 45.547V46.047H1H30.2556V75.2444V75.7444H30.7556H60.4534C85.3428 75.7444 105.5 55.5875 105.5 30.698V30.198H105H75.7444V1V0.5H75.2444H45.5466ZM74.7937 31.198H45.5466C37.7857 31.198 31.4695 37.3505 31.2063 45.047H60.4534C68.2143 45.047 74.5305 38.8945 74.7937 31.198ZM60.4534 46.047C68.7667 46.047 75.5306 39.4469 75.7942 31.198H104.497C104.229 55.3046 84.6237 74.7444 60.4534 74.7444H31.2556V46.047H60.4534Z" fill="white" fill-opacity="0.15"/>
</svg>
