<svg width="72" height="72" viewBox="0 0 72 72" fill="none" xmlns="http://www.w3.org/2000/svg">
<path fill-rule="evenodd" clip-rule="evenodd" d="M24.9803 1H46.9896C46.4648 26.173 26.173 46.4648 1 46.9896V24.9803C13.9982 24.4673 24.4673 13.9982 24.9803 1ZM25 0H47H48C48 0.334144 47.9966 0.667489 47.9898 1C47.4647 26.7254 26.7254 47.4647 1 47.9898C0.667489 47.9966 0.334144 48 0 48V47V25V24C13.24 24 24 13.24 24 0H25ZM24.0101 71.0002C24.5352 45.2749 45.2746 24.5355 70.9999 24.0104C71.3325 24.0037 71.6658 24.0002 71.9999 24.0002V25.0002V47.0002V48.0002C58.7599 48.0002 47.9999 58.7602 47.9999 72.0002H46.9999H24.9999H23.9999C23.9999 71.6661 24.0033 71.3328 24.0101 71.0002ZM25.0104 71.0002C25.5351 45.8272 45.8269 25.5354 70.9999 25.0107V47.0199C58.0017 47.533 47.5327 58.002 47.0196 71.0002H25.0104Z" fill="white" fill-opacity="0.15"/>
</svg>
